Coordinates
version=1
nRows=26
nColumns=24
inDegrees=yes

Units are S.I. units (second, meters, Newtons, ...)
Angles are in degrees.

endheader
time	pelvis_tilt	pelvis_list	pelvis_rotation	pelvis_tx	pelvis_ty	pelvis_tz	hip_flexion_r	hip_adduction_r	hip_rotation_r	knee_angle_r	ankle_angle_r	subtalar_angle_r	mtp_angle_r	hip_flexion_l	hip_adduction_l	hip_rotation_l	knee_angle_l	ankle_angle_l	subtalar_angle_l	mtp_angle_l	lumbar_extension	lumbar_bending	lumbar_rotation
      1.49000000	     18.61705177	     -6.01849448	      1.68653083	     -0.00147968	      0.95206687	      0.33548756	    -28.86868614	     10.39823643	     -0.25641160	     -4.45590361	     22.70276410	      5.66504542	     12.65432507	      9.75999070	     -6.41083428	     -8.25011476	    -31.45695661	     18.38010382	      3.27928132	     42.77937238	    -37.41075131	      7.64018157	      9.21460821
      1.49500000	     18.74320716	     -6.00192996	      1.59250986	      0.00542193	      0.95140321	      0.33544648	    -29.54611510	     10.30313817	     -0.19499213	     -4.38090502	     22.96884806	      5.85965036	     12.61438348	      9.39421988	     -6.21151785	     -8.53819900	    -28.99822595	     17.63846783	      3.86686302	     42.49907928	    -37.54492296	      7.55236985	      9.41167431
      1.50000000	     18.91162237	     -5.92195986	      1.41115284	      0.01251187	      0.95076768	      0.33561266	    -30.25770716	     10.09647765	     -0.24439436	     -4.35427065	     23.20779869	      6.38300794	     12.66063991	      8.89017374	     -5.97016546	     -8.97280620	    -26.47631324	     16.97041512	      4.72154860	     42.21552208	    -37.71194638	      7.34854347	      9.58134942
      1.50500000	     19.01744063	     -5.89493163	      1.19053992	      0.01959777	      0.95012937	      0.33575310	    -30.88796045	      9.91332101	     -0.14830815	     -4.35881359	     23.43354769	      6.79057256	     12.75688016	      8.44046189	     -5.76879531	     -9.43633473	    -23.98846949	     16.25904112	      5.56671602	     41.94801719	    -37.83373585	      7.17959399	      9.88169002
      1.51000000	     19.11844545	     -5.85224854	      0.98326497	      0.02675934	      0.94937932	      0.33575507	    -31.51635254	      9.71259799	     -0.06212414	     -4.36568326	     23.65741637	      7.09574803	     12.89095291	      7.99019567	     -5.52736962	     -9.83994472	    -21.52026558	     15.60601482	      6.30763628	     41.70698209	    -37.93222603	      7.02926262	     10.09938906
      1.51500000	     19.28089123	     -5.80847448	      0.82898044	      0.03399575	      0.94865887	      0.33573896	    -32.24500069	      9.53025711	     -0.06230061	     -4.30198415	     23.80838420	      7.43515703	     13.02980229	      7.47494256	     -5.28236538	    -10.20539151	    -19.13198597	     15.09070584	      7.08216316	     41.42926729	    -38.07812992	      6.88619341	     10.19107334
      1.52000000	     19.32018813	     -5.80591729	      0.75927296	      0.04113752	      0.94772556	      0.33547871	    -32.75211713	      9.42445032	     -0.19115671	     -4.39587815	     24.03114816	      7.86050610	     13.14567841	      7.13887316	     -5.05125878	    -10.46037303	    -16.84291075	     14.66827964	      7.80316678	     41.13465220	    -38.10373959	      6.84203570	     10.32399207
      1.52500000	     19.29729598	     -5.83709311	      0.67682022	      0.04846179	      0.94673816	      0.33535234	    -33.20334150	      9.35571671	     -0.25281353	     -4.47514877	     24.23744396	      8.07041331	     13.28659860	      6.84334784	     -4.86203171	    -10.71297488	    -14.61755315	     14.24751684	      8.54172209	     40.67453990	    -38.04566539	      6.81410592	     10.47016619
      1.53000000	     19.30928771	     -5.86076912	      0.52675577	      0.05578278	      0.94581070	      0.33516225	    -33.72566494	      9.22275836	     -0.17602875	     -4.49593829	     24.39716469	      8.39114419	     13.43495091	      6.48363907	     -4.64932101	    -10.99702604	    -12.46178920	     13.79608101	      9.02281063	     40.46102872	    -38.03393364	      6.76725808	     10.72902695
      1.53500000	     19.38044797	     -5.85595926	      0.45107242	      0.06308293	      0.94484575	      0.33499009	    -34.30136587	      9.10765920	     -0.17562769	     -4.52498816	     24.50841564	      8.68077594	     13.71972940	      6.10444303	     -4.42038972	    -11.30218032	    -10.49260630	     13.47243511	      9.72717123	     40.31014212	    -38.07679412	      6.71326245	     10.77256751
      1.54000000	     19.44912602	     -5.89337264	      0.38934557	      0.07045155	      0.94385072	      0.33474106	    -34.83487482	      9.03875987	     -0.26871923	     -4.64466540	     24.56020456	      8.98282253	     14.11526961	      5.78156184	     -4.24333890	    -11.59199400	     -8.77221692	     13.23879864	     10.44726049	     40.06331380	    -38.10403881	      6.70553770	     10.88972493
      1.54500000	     19.47289352	     -5.93421988	      0.33475662	      0.07791359	      0.94283601	      0.33442514	    -35.32930506	      8.97419198	     -0.29266266	     -4.76358149	     24.80141532	      9.35147808	     14.58093709	      5.53647525	     -4.07016798	    -11.91323644	     -7.26210046	     13.17045653	     11.18672759	     39.70458894	    -38.09484183	      6.70410800	     11.02040601
      1.55000000	     19.40270435	     -6.02522673	      0.34054651	      0.08534871	      0.94168019	      0.33412515	    -35.65970932	      9.00685045	     -0.39100942	     -4.97185990	     24.75675089	      9.58206384	     16.50561163	      5.51675220	     -3.98518727	    -12.19884940	     -6.14942423	     13.34637242	     12.21417788	     37.72409340	    -37.97295695	      6.78205752	     11.10811054
      1.55500000	     19.24687236	     -6.13743758	      0.34944262	      0.09269726	      0.94041113	      0.33379051	    -35.81357345	      9.05232095	     -0.52049509	     -5.34226817	     25.01050269	      9.96909035	     16.61459182	      5.65583080	     -3.92462102	    -12.52205778	     -5.30593147	     13.46468619	     13.16729232	     37.75712477	    -37.76747431	      6.90060429	     11.13368304
      1.56000000	     19.25401099	     -6.17034386	      0.35015076	      0.10024433	      0.93931217	      0.33352105	    -36.22698343	      8.99970800	     -0.70061705	     -5.58098493	     25.16997691	     10.46411655	     16.82765399	      5.61943352	     -3.80104363	    -12.98104670	     -4.67259359	     13.69234680	     14.26515461	     37.74341762	    -37.70628092	      6.92446480	     11.14635221
      1.56500000	     19.26903568	     -6.21679302	      0.36771389	      0.10782916	      0.93826467	      0.33330234	    -36.68256149	      8.98192662	     -0.64178971	     -5.71507824	     25.02831937	     10.55847256	     18.47805986	      5.64906274	     -3.72332923	    -13.48501915	     -4.37874961	     13.98058227	     15.41051518	     37.05991990	    -37.65693544	      6.95641428	     11.14432127
      1.57000000	     19.09380303	     -6.30159602	      0.32808004	      0.11560508	      0.93695879	      0.33302008	    -36.78539940	      8.96030392	     -0.79476432	     -6.19930949	     25.21215622	     11.01519460	     18.65944338	      5.90752205	     -3.69492728	    -13.89198060	     -4.33184981	     14.26511775	     16.19270558	     37.14481628	    -37.38621360	      7.00081342	     11.28085754
      1.57500000	     19.05018209	     -6.37135656	      0.32445609	      0.12346444	      0.93583912	      0.33283002	    -37.07376048	      8.93454908	     -0.91310824	     -6.60676598	     25.19510864	     11.51480534	     18.93165211	      6.08696709	     -3.68436153	    -14.26464840	     -4.61362207	     14.57348407	     16.81393790	     37.18886288	    -37.26549677	      7.04214136	     11.30300086
      1.58000000	     19.14469162	     -6.37611299	      0.29509505	      0.13127559	      0.93494105	      0.33279211	    -37.53401410	      8.83364069	     -0.97372596	     -6.94182590	     24.99460774	     11.82566016	     20.86408872	      6.11240376	     -3.62924109	    -14.45724132	     -5.05513593	     14.90344175	     17.10791775	     36.57190828	    -37.27505820	      6.98024449	     11.30182164
      1.58500000	     19.08706338	     -6.44654008	      0.27401910	      0.13910922	      0.93384944	      0.33274994	    -37.75009605	      8.79825335	     -0.97317041	     -7.44231640	     25.00433908	     12.13341260	     21.11454613	      6.32688371	     -3.65540697	    -14.31793312	     -5.68086843	     15.13630273	     17.08174262	     36.53987918	    -37.12742279	      6.99501005	     11.33485725
      1.59000000	     19.17047411	     -6.30327094	      0.20684578	      0.14716462	      0.93299366	      0.33265621	    -38.11402217	      8.50912862	     -1.29808055	     -7.97981619	     25.02561408	     12.73505440	     22.04468080	      6.31358340	     -3.43376617	    -14.11711817	     -6.35791658	     15.29254549	     16.69370193	     36.33295122	    -37.10302894	      6.77342998	     11.15648542
      1.59500000	     19.19274589	     -6.28622314	      0.03295940	      0.15511234	      0.93215217	      0.33262651	    -38.29527686	      8.25315607	     -1.42153652	     -8.74359392	     25.07288735	     13.36865523	     22.46198060	      6.40718907	     -3.39144723	    -14.10771549	     -7.27200543	     15.47484982	     16.60796211	     36.31547934	    -37.05221237	      6.61835924	     11.26463682
      1.60000000	     19.30675000	     -6.14606171	      0.00474050	      0.16325989	      0.93130162	      0.33250344	    -38.64559566	      7.97862907	     -1.66932275	     -9.35526807	     24.81516192	     13.81052950	     25.07823401	      6.41781971	     -3.22057661	    -13.92219547	     -8.30176014	     15.82028078	     16.57184135	     35.65196093	    -37.04077267	      6.43493217	     11.07159989
      1.60500000	     19.25799282	     -6.03456231	     -0.11296469	      0.17143134	      0.93032017	      0.33241640	    -38.72548658	      7.66264938	     -1.89278447	    -10.16107095	     24.87171541	     14.50143066	     25.45193892	      6.58670306	     -3.07958981	    -13.64033624	     -9.42397224	     16.11071774	     16.26453191	     35.53859855	    -36.86676043	      6.23283031	     11.06248119
      1.61000000	     19.34824943	     -5.92012380	     -0.24978899	      0.17955635	      0.92951244	      0.33247281	    -38.98489665	      7.33345449	     -1.97540773	    -10.88597450	     24.62789728	     14.98022625	     27.45725826	      6.53678868	     -2.93642706	    -13.29001621	    -10.50752143	     16.32768458	     16.04983972	     35.15406233	    -36.85131962	      5.98604550	     11.11533753
      1.61500000	     19.38339422	     -5.86361483	     -0.40122371	      0.18776455	      0.92860076	      0.33260939	    -39.13211675	      7.06001269	     -1.98983448	    -11.74609774	     24.54907872	     15.52980542	     27.67750148	      6.53626886	     -2.85596729	    -12.90909203	    -11.65875095	     16.45094482	     15.89970878	     35.18312813	    -36.78197187	      5.78575252	     11.10324398
